<svg id="Capa_1" enable-background="new 0 0 511.945 511.945" height="512" viewBox="0 0 511.945 511.945" width="512" xmlns="http://www.w3.org/2000/svg"><g><g><path d="m47.447 243.18c1.919 0 3.839-.732 5.304-2.197 2.929-2.929 2.929-7.678 0-10.606l-9.659-9.659c-18.148-18.148-28.144-42.278-28.144-67.943 0-25.666 9.995-49.795 28.144-67.944s42.277-28.143 67.943-28.143 49.795 9.995 67.943 28.143l32.842 32.842c2.931 2.929 7.679 2.927 10.607 0l32.843-32.843c33.234-33.234 85.139-37.661 123.42-10.521 3.381 2.396 8.062 1.598 10.456-1.78 2.396-3.379 1.599-8.061-1.78-10.457-21.139-14.986-47.077-22.097-73.043-20.027-26.265 2.095-51.004 13.523-69.66 32.179l-27.538 27.539-27.539-27.539c-20.981-20.981-48.878-32.537-78.55-32.537-29.673 0-57.569 11.555-78.551 32.537-43.313 43.313-43.313 113.788 0 157.1l9.659 9.659c1.464 1.464 3.384 2.197 5.303 2.197z"/><path d="m504.439 352.229h-23.467c-11.72 0-23.023 4.26-31.828 11.996l-90.386 79.413c-8.528 7.494-19.478 11.62-30.831 11.62h-155.851l-82.33-15.292c-8.846-1.643-15.266-9.365-15.266-18.361 0-5.571 2.458-10.808 6.745-14.367 4.287-3.56 9.89-5.011 15.363-3.989l72.69 13.596c.455.085.916.128 1.379.128h34.924l56.958 16.716c4.092 1.274 8.278 1.902 12.435 1.902 8.248 0 16.376-2.472 23.402-7.27l89.846-61.353c3.421-2.336 4.3-7.002 1.964-10.423s-7.003-4.3-10.423-1.964l-89.846 61.353c-6.771 4.624-15.142 5.869-22.965 3.42-.043-.014-.086-.026-.129-.039l-74.323-21.813c-10.116-2.969-16.558-12.722-15.316-23.189.713-6.016 3.801-11.293 8.695-14.862 4.896-3.568 10.862-4.894 16.807-3.733l57.519 11.229c3.358.656 6.737-1.047 8.209-4.137.152-.319 15.495-32.32 39.115-63.801 21.119-28.147 53.328-61.7 86.837-61.7h110.08c4.143 0 7.5-3.358 7.5-7.5s-3.357-7.5-7.5-7.5h-94.623c30.603-38.026 33.048-92.089 4.659-132.891-2.364-3.399-7.04-4.238-10.439-1.873-3.4 2.366-4.239 7.04-1.873 10.44 26.561 38.174 21.929 89.791-11.014 122.733l-1.798 1.799c-65.033 4.934-119.438 104.15-131.893 128.612l-51.903-10.133c-9.943-1.942-20.335.368-28.519 6.334-1.411 1.029-2.732 2.16-3.969 3.368l-94.917-94.917c-2.93-2.929-7.678-2.929-10.607 0s-2.929 7.678 0 10.606l49.076 49.076c-6.062-.098-12.101 1.445-17.482 4.581-8.681 5.059-14.607 13.644-16.261 23.555-.436 2.614-.547 5.244-.369 7.849l-.962-.18c-9.877-1.849-19.974.775-27.703 7.192-7.729 6.418-12.163 15.861-12.163 25.908 0 12.877 7.303 24.434 18.565 30.079-.504 2.328-.769 4.724-.769 7.157 0 16.221 11.576 30.145 27.526 33.108l83.01 15.418c.451.084.91.126 1.369.126h156.542c15 0 29.465-5.452 40.731-15.352l90.386-79.413c6.066-5.33 13.854-8.265 21.928-8.265h23.467c4.143 0 7.5-3.358 7.5-7.5s-3.359-7.497-7.502-7.497zm-333.085 49.745-72.007-13.468c-9.878-1.848-19.974.775-27.703 7.192-1.876 1.558-3.554 3.298-5.026 5.178-6.042-3.191-9.933-9.5-9.933-16.506 0-5.572 2.458-10.809 6.745-14.368s9.887-5.012 15.363-3.989l24.41 4.566c4.066.765 7.99-1.921 8.751-5.993.762-4.071-1.922-7.989-5.993-8.751l-7.782-1.456c-.787-2.686-.967-5.517-.502-8.312.917-5.496 4.204-10.257 9.018-13.063 4.814-2.805 10.575-3.318 15.81-1.406l16.157 5.902 25.933 25.933c-.17.43-.324.867-.478 1.304h-10.559l-12.466-2.332c-4.064-.761-7.989 1.921-8.751 5.993s1.922 7.99 5.993 8.751l13.149 2.459c.455.085.916.128 1.379.128h9.285c.652 8.446 3.543 16.262 9.207 22.238z"/><path d="m178.854 138.883c-15.028 1.956-25.665 15.773-23.71 30.803 1.801 13.831 13.646 23.94 27.236 23.94 1.178 0 2.368-.076 3.566-.231 15.028-1.956 25.665-15.774 23.71-30.802 0 0 0 0 0-.001-1.955-15.028-15.764-25.663-30.802-23.709zm5.158 39.638c-6.832.895-13.104-3.943-13.992-10.77-.889-6.827 3.943-13.104 10.771-13.993.545-.071 1.085-.105 1.62-.105 6.172 0 11.554 4.593 12.372 10.875.888 6.827-3.944 13.104-10.771 13.993z"/><path d="m240.704 130.835c-15.028 1.956-25.665 15.773-23.71 30.802.947 7.281 4.673 13.756 10.491 18.235 4.855 3.737 10.682 5.709 16.709 5.709 1.194 0 2.398-.078 3.603-.234 15.028-1.956 25.665-15.774 23.71-30.802 0 0 0 0 0-.001-1.957-15.028-15.776-25.661-30.803-23.709zm5.157 39.638c-3.306.429-6.585-.453-9.227-2.487-2.644-2.034-4.336-4.976-4.766-8.283-.889-6.828 3.943-13.104 10.771-13.993.544-.071 1.084-.105 1.619-.105 6.174 0 11.556 4.593 12.373 10.876v-.001c.89 6.828-3.943 13.105-10.77 13.993z"/><path d="m144.059 191.909c-15.028 1.956-25.665 15.773-23.71 30.802.947 7.281 4.673 13.756 10.491 18.234 4.855 3.737 10.682 5.71 16.708 5.71 1.195 0 2.399-.078 3.604-.234 15.028-1.956 25.665-15.774 23.71-30.802 0 0 0 0 0-.001-1.957-15.029-15.778-25.662-30.803-23.709zm15.927 25.644c.889 6.827-3.943 13.104-10.771 13.993-3.311.431-6.584-.453-9.227-2.487-2.644-2.035-4.336-4.976-4.766-8.283-.889-6.828 3.943-13.104 10.771-13.993.545-.071 1.085-.105 1.62-.105 6.173 0 11.555 4.593 12.373 10.875z"/><path d="m295.004 227.704c7.28-.948 13.756-4.673 18.234-10.491s6.422-13.032 5.475-20.312-4.673-13.756-10.49-18.234c-5.818-4.478-13.031-6.422-20.313-5.475-7.28.947-13.756 4.673-18.234 10.491s-6.422 13.032-5.475 20.311c1.8 13.832 13.645 23.943 27.237 23.942 1.177-.001 2.369-.077 3.566-.232zm-15.928-25.646c-.431-3.307.452-6.583 2.486-9.226s4.976-4.335 8.283-4.765c.548-.071 1.094-.106 1.637-.106 2.738 0 5.385.896 7.591 2.593 2.643 2.034 4.335 4.976 4.765 8.283v.001c.431 3.307-.452 6.583-2.486 9.226s-4.977 4.335-8.283 4.766c-6.826.881-13.105-3.944-13.993-10.772z"/><path d="m205.896 307.133c.698 0 1.401-.021 2.105-.063 5.307-.32 10.334-1.761 14.942-4.283 5.229-2.86 11.295-3.648 17.084-2.222 5.091 1.255 10.308 1.363 15.509.322 16.901-3.385 29.13-18.913 28.444-36.12-.498-12.516-7.31-23.616-18.221-29.691-5.512-3.069-9.48-7.911-11.176-13.632h-.001c-2.375-8.017-7.56-14.975-14.597-19.592-14.608-9.589-34.362-6.952-45.95 6.131-5.956 6.724-9.137 15.346-8.955 24.278.118 5.853-1.977 11.551-5.898 16.044-7.405 8.487-10.312 19.695-7.973 30.75 3.457 16.33 18.155 28.079 34.687 28.078zm-15.412-48.966c6.38-7.311 9.787-16.619 9.593-26.21-.104-5.152 1.738-10.135 5.188-14.029 3.982-4.496 9.636-6.852 15.338-6.852 3.864 0 7.752 1.083 11.154 3.316 4.136 2.714 7.056 6.626 8.445 11.313h-.001c2.816 9.504 9.302 17.486 18.261 22.476 6.305 3.511 10.242 9.935 10.53 17.184.396 9.914-6.656 18.863-16.401 20.814-3.021.604-6.042.544-8.974-.178-9.44-2.326-19.339-1.041-27.872 3.626-2.655 1.453-5.565 2.284-8.648 2.47-10.028.597-19.136-6.338-21.211-16.148-1.355-6.399.322-12.881 4.598-17.782z"/></g></g></svg>